<?xml version="1.0" encoding="utf-8"?>
<!-- Generator: Adobe Illustrator 23.0.3, SVG Export Plug-In . SVG Version: 6.00 Build 0)  -->
<svg version="1.1" id="Ebene_1" xmlns="http://www.w3.org/2000/svg" xmlns:xlink="http://www.w3.org/1999/xlink" x="0px" y="0px"
	 viewBox="0 0 1079 295" style="enable-background:new 0 0 1079 295;" xml:space="preserve">
<style type="text/css">
	.st0{fill:#5CCDF1;}
	.st1{fill:#3192CF;}
	.st2{fill:#16378E;}
	.st3{fill:#1E3791;}
	.st4{fill:#E60005;}
	.st5{fill:#FFFFFF;}
</style>
<g>
	<polygon class="st0" points="0,0 0,131 326,217 544,0 	"/>
	<polygon class="st1" points="708,0 326,217 544,0 	"/>
	<polygon class="st2" points="1079,0 1079,148 326,217 708,0 	"/>
	<g>
		<path class="st3" d="M73.3,27.5l-7.2,0.3V64h7.2V51.9H77L83,64h8.1l-8-15.4l7.7-12.8h-8L77,46h-3.7V27.5z M118,35.8h-7.2v18.1
			c0,2.9-1.5,4.2-4.7,4.2s-4.6-1.4-4.6-4.2V35.8h-7.2V54c0,6.7,3.9,10.5,11.9,10.5S118,60.9,118,54L118,35.8z M131.4,64V27.5
			l-7.3,0.3V64H131.4z M152.5,41.2v-5.4h-6.3v-6.9l-5.7,0.5l-1.2,6.4h-3.5v5.4h3.2v14.6c0,5.3,2.7,8.6,8.4,8.6c2,0,3.9-0.4,4.8-0.8
			l-0.4-5.3c-0.5,0.2-1.5,0.3-2.2,0.3c-2.2,0-3.3-0.9-3.3-3.1V41.2H152.5z M179.9,35.8h-7.2v18.1c0,2.9-1.5,4.2-4.7,4.2
			s-4.7-1.4-4.7-4.2V35.8h-7.2V54c0,6.7,3.9,10.5,11.9,10.5s11.9-3.6,11.9-10.5V35.8z M192.6,64V49.9c0-4.7,2.8-7.4,6.6-7.4
			c1.1,0,2.2,0.2,3.1,0.5l0.5-7.1c-0.7-0.2-1.8-0.4-3.1-0.4c-3.2,0-6,1.7-7.7,5.1h-0.1l-0.7-4.7l-5.8,0.3v28H192.6z M78.7,82.4
			c2.1,0,4,0.3,5.7,0.7l1.3-9.4l4.6-0.3l-5.2,37.1h-3.4l-0.1-1.8c0-0.6,0-1.3,0-1.9l-0.1,0c-2.4,2.8-5.6,4.2-9.2,4.2
			c-5,0-7.8-2.6-7.8-9.3C64.4,88.6,70.2,82.4,78.7,82.4z M73.8,107.4c4.3,0,7.6-3.3,8.4-8.8l1.7-11.8c-1.3-0.5-3-0.7-5-0.7
			c-5.3,0-8.4,3.5-9.5,11.1c-0.2,1.6-0.3,2.9-0.3,4.1C69,105.9,70.8,107.4,73.8,107.4z M97.3,110.5l3.9-27.8L96.6,83l-3.9,27.5H97.3
			z M100.1,73.3c-2.1,0-3.3,1-3.3,2.8c0,1.3,0.9,1.8,2.6,1.8c2.1,0,3.3-0.8,3.3-2.7C102.7,74,101.9,73.3,100.1,73.3z M129.4,82.8
			l-3.3,23.1c-1.2,8.6-6.2,11.8-13.3,11.8c-2.8,0-5.6-0.7-7.8-1.7l1-3.3c2.1,1,4.3,1.6,6.5,1.6c5,0,8.3-1.9,9.2-8.2l0.1-0.9l-0.1,0
			c-1.9,2.6-4.6,3.9-8,3.9c-4.8,0-8-2.2-8-8.8c0-10.8,5.9-17.7,15.6-17.7c2.7,0,4.8,0.4,7,0.4H129.4z M115.3,105.4
			c4,0,6.9-2.9,7.6-8.2l1.5-11.1c-1-0.1-2-0.2-3.4-0.2c-6.2,0-10.6,5.1-10.6,13.7C110.4,104,112.2,105.4,115.3,105.4z M137.7,110.5
			l3.9-27.8L137,83l-3.9,27.5H137.7z M140.5,73.3c-2.1,0-3.3,1-3.3,2.8c0,1.3,0.9,1.8,2.6,1.8c2.1,0,3.3-0.8,3.3-2.7
			C143.1,74,142.3,73.3,140.5,73.3z M146.2,86.4h4l-2.1,15.3c-0.1,1-0.2,1.9-0.2,2.7c0,4.5,2,6.5,6,6.5c2.2,0,4.2-0.7,5.6-1.6
			l-0.1-3.2c-1.2,0.7-2.6,1.2-3.9,1.2c-2,0-3.1-1.1-3.1-3.8c0-0.6,0-1.2,0.1-1.9l2.1-15.2h7.4l0.7-3.4h-7.6l1.1-7.8l-3.6,0.6
			l-1.7,7.2h-4L146.2,86.4z M181.3,82.4c3.1,0,4.7,0.4,7.2,0.4h0.6l-3.9,27.7h-3.5v-3.9l-0.1,0c-2.3,3-5.6,4.4-9.2,4.4
			c-5.2,0-8-2.7-8-9.1C164.5,90,171.1,82.4,181.3,82.4z M173.9,107.4c4.3,0,7.6-3.3,8.4-8.8l1.8-12.4c-1-0.1-2-0.2-3.3-0.2
			c-6.3,0-10.3,4.1-11.4,12c-0.2,1.3-0.3,2.5-0.3,3.5C169.1,105.8,170.7,107.4,173.9,107.4z M197,110.5l5.2-37.1l-4.6,0.3l-5.2,36.7
			H197z"/>
		<path class="st4" d="M233.9,53.9c0,6.3-3.7,10.1-12.5,10.1h-14.4V29.1h14.2c7.6,0,11.4,3.4,11.4,8.9c0,3.9-1.9,6.3-4.6,7.5v0.1
			C231.8,46.7,233.9,49.4,233.9,53.9z M226,53.3c0-2.9-1.3-4.1-4.7-4.1h-6.7v8.5h6.9C224.6,57.6,226,56.6,226,53.3z M225.1,39.4
			c0-2.7-1.3-3.7-4.2-3.7h-6.3v7.6h6.5C223.9,43.3,225.1,42.2,225.1,39.4L225.1,39.4z"/>
		<path class="st5" d="M214.9,100h3.8c2.8,0,4,1.1,4,3.7c0,0.5,0,1-0.1,1.5c-0.5,3.8-2.3,5.3-5.3,5.3h-3.8L214.9,100z M216.6,101.6
			l-1,7.4h1.9c1.8,0,2.7-0.7,3.2-3.8c0.1-0.5,0.1-1,0.1-1.4c0-1.7-0.7-2.2-2.3-2.2H216.6z M225.8,110.5l1.2-8.4l-1.8,0.1l-1.2,8.3
			H225.8z M226.5,99.3c-0.8,0-1.2,0.3-1.2,1c0,0.5,0.3,0.6,1,0.6c0.8,0,1.2-0.3,1.2-0.9C227.4,99.5,227.1,99.3,226.5,99.3z
			 M236,102.1l-1,7.1c-0.4,2.6-2,3.5-4.2,3.5c-0.9,0-1.7-0.2-2.4-0.5l0.4-1.3c0.6,0.3,1.3,0.4,1.9,0.4c1.4,0,2.3-0.5,2.6-2.2l0-0.1
			l0,0c-0.5,0.7-1.3,1-2.2,1c-1.5,0-2.4-0.7-2.4-2.7c0-3.2,1.7-5.3,4.7-5.3c0.8,0,1.4,0.1,2.1,0.1H236z M231.6,108.6
			c1.1,0,1.8-0.8,2-2.3l0.4-3c-0.3,0-0.5,0-0.9,0c-1.7,0-2.8,1.4-2.8,3.8C230.3,108.3,230.8,108.6,231.6,108.6L231.6,108.6z
			 M239,110.5l1.2-8.4l-1.8,0.1l-1.2,8.3H239z M239.6,99.3c-0.8,0-1.2,0.3-1.2,1c0,0.5,0.3,0.6,1,0.6c0.8,0,1.2-0.3,1.2-0.9
			C240.6,99.5,240.3,99.3,239.6,99.3z M241.7,103.5h1.1l-0.6,4.3c0,0.3-0.1,0.5-0.1,0.8c0,1.4,0.7,2.1,2,2.1c0.7,0,1.3-0.2,1.8-0.5
			v-1.2c-0.3,0.2-0.7,0.3-1.1,0.3c-0.6,0-0.9-0.3-0.9-1c0-0.2,0-0.3,0-0.5l0.6-4.2h2.1l0.3-1.3h-2.2l0.3-2.3l-1.4,0.2l-0.6,2.1h-1.2
			L241.7,103.5z M252.8,102c0.9,0,1.4,0.1,2.1,0.1h0.4l-1.2,8.4h-1.4l0-0.4c0-0.2,0-0.4,0-0.6l0,0c-0.7,0.8-1.7,1.2-2.6,1.2
			c-1.6,0-2.5-0.9-2.5-2.8C247.6,104.3,249.7,102,252.8,102z M250.7,109.3c1.1,0,2-0.9,2.2-2.3l0.5-3.6c-0.3,0-0.5-0.1-0.8-0.1
			c-1.7,0-2.7,1.1-3.1,3.3c-0.1,0.4-0.1,0.7-0.1,1C249.4,108.9,249.9,109.3,250.7,109.3z M258.3,110.5l1.6-11.1l-1.8,0.1l-1.5,11
			H258.3z M265,102c1.6,0,2.5,0.8,2.5,1.8c0,1.7-1.4,2.8-5,3.2c0,0.1,0,0.3,0,0.4c0,1.4,0.6,1.8,1.7,1.8c0.8,0,1.6-0.3,2.1-0.7
			l0.5,1.1c-0.7,0.6-1.8,1.1-3.1,1.1c-1.8,0-3-0.9-3-3.2c0-0.4,0-0.8,0.1-1.2C261.2,103.4,262.7,102,265,102z M264.9,103.3
			c-1.2,0-1.9,0.8-2.2,2.6c2.5-0.3,3.3-1,3.3-1.8C265.9,103.6,265.6,103.3,264.9,103.3z M275.2,109l0.4-3.2h4.1l0.2-1.4h-4.1
			l0.4-2.8h4.8l0.2-1.5h-6.7l-1.5,10.5h6.9l0.3-1.5L275.2,109z M287,110.5h1.8l0.7-5.2c0-0.3,0.1-0.6,0.1-0.9c0-1.6-0.8-2.4-2.3-2.4
			c-1.1,0-2,0.4-2.7,1.2l0,0c0-0.2,0-0.4,0-0.6l0-0.5l-1.4,0.1l-1.2,8.3h1.8l0.7-4.7c0.2-1.5,1-2.4,2.2-2.4c0.8,0,1.2,0.3,1.2,1.2
			c0,0.2,0,0.4-0.1,0.6L287,110.5z M291.2,103.5h1.1l-0.6,4.3c0,0.3-0.1,0.5-0.1,0.8c0,1.4,0.7,2.1,2,2.1c0.7,0,1.3-0.2,1.8-0.5
			v-1.2c-0.3,0.2-0.7,0.3-1.1,0.3c-0.6,0-0.9-0.3-0.9-1c0-0.2,0-0.3,0-0.5l0.6-4.2h2.1l0.3-1.3h-2.2l0.3-2.3l-1.4,0.2l-0.6,2.1h-1.2
			L291.2,103.5z M308.8,101.9l-1.7,0.4c0.1,0.4,0.1,0.9,0.1,1.4c0,3.6-2,5.3-2.4,5.3c-0.4,0-0.9-0.6-0.9-2.2c0-0.4,0-0.9,0.1-1.5
			l0.4-3.1h-1.8l-0.4,2.8c-0.4,2.7-1.8,4-2.2,4c-0.3,0-0.8-0.6-0.8-2.2c0-0.4,0-1,0.1-1.5l0.4-3.2l-1.8,0.1l-0.4,3.1
			c-0.1,0.5-0.1,1-0.1,1.4c0,2.8,1.4,3.9,2.1,3.9c0.5,0,1.9-0.8,2.9-2.5h0c0.4,1.8,1.3,2.5,1.9,2.5c1.1,0,4.5-2.4,4.5-6.9
			C309,103,308.9,102.4,308.8,101.9L308.8,101.9z M312,110.5l1.2-8.4l-1.8,0.1l-1.2,8.3H312z M312.6,99.3c-0.8,0-1.2,0.3-1.2,1
			c0,0.5,0.3,0.6,1,0.6c0.8,0,1.2-0.3,1.2-0.9C313.6,99.5,313.3,99.3,312.6,99.3z M318.8,102c-2.3,0-3.8,1.4-4.2,4.3
			c-0.1,0.4-0.1,0.9-0.1,1.2c0,2.2,1.1,3.2,2.8,3.2c1.2,0,2-0.3,2.8-1l-0.5-1c-0.5,0.4-1.1,0.7-1.8,0.7c-1,0-1.6-0.4-1.6-1.9
			c0-0.3,0-0.7,0.1-1.1c0.3-2.1,1.1-2.9,2.5-2.9c0.6,0,1,0.1,1.4,0.3l0.6-1.2C320.4,102.1,319.7,102,318.8,102L318.8,102z
			 M323.5,110.5l0.4-3.1c0.4-2.6,1.8-4,3-4c0.5,0,0.7,0.3,0.7,0.7c0,0.9-0.9,1.9-2.6,2.5c0.4,2.5,2,4,4,4.1l0.4-1.3
			c-1.1-0.2-2-1-2.5-2.2c1.6-0.8,2.5-2.2,2.5-3.5c0-1-0.6-1.7-1.8-1.7c-1.1,0-2.2,0.5-3.1,1.5l0,0c0-0.2,0.1-0.4,0.1-0.6l0.5-3.5
			l-1.8,0.1l-1.5,11L323.5,110.5z M332.5,110.5l1.6-11.1l-1.8,0.1l-1.5,11H332.5z M342.6,102.1h-1.8l-0.8,5.5
			c-0.2,1-0.8,1.6-1.8,1.6c-1,0-1.4-0.4-1.4-1.2c0-0.1,0-0.2,0-0.3l0.8-5.6l-1.8,0.1l-0.8,5.5c0,0.2,0,0.4,0,0.6c0,1.5,1,2.4,3,2.4
			c2.3,0,3.5-1.1,3.8-3L342.6,102.1z M348.6,110.5h1.8l0.7-5.2c0-0.3,0.1-0.6,0.1-0.9c0-1.6-0.8-2.4-2.3-2.4c-1.1,0-2,0.4-2.7,1.2
			l0,0c0-0.2,0-0.4,0-0.6l0-0.5l-1.4,0.1l-1.2,8.3h1.8l0.7-4.7c0.2-1.5,1-2.4,2.2-2.4c0.8,0,1.2,0.3,1.2,1.2c0,0.2,0,0.4-0.1,0.6
			L348.6,110.5z M360.3,102.1l-1,7.1c-0.4,2.6-2,3.5-4.2,3.5c-0.9,0-1.7-0.2-2.4-0.5l0.4-1.3c0.6,0.3,1.3,0.4,1.9,0.4
			c1.4,0,2.3-0.5,2.6-2.2l0-0.1l0,0c-0.5,0.7-1.3,1-2.2,1c-1.5,0-2.4-0.7-2.4-2.7c0-3.2,1.7-5.3,4.7-5.3c0.8,0,1.4,0.1,2.1,0.1
			H360.3z M355.9,108.6c1.1,0,1.8-0.8,2-2.3l0.4-3c-0.3,0-0.5,0-0.9,0c-1.7,0-2.8,1.4-2.8,3.8C354.6,108.3,355.1,108.6,355.9,108.6z
			 M217.7,121c0.6,0,1.1,0.1,1.6,0.2l0.4-2.7l1.8-0.1l-1.6,11.1h-1.3l-0.1-0.4c0-0.2,0-0.4,0-0.6l0,0c-0.7,0.8-1.7,1.1-2.6,1.1
			c-1.6,0-2.4-0.8-2.4-2.8C213.3,122.8,215.1,121,217.7,121L217.7,121z M216.4,128.3c1.1,0,2-0.9,2.2-2.4l0.5-3.3
			c-0.4-0.1-0.8-0.2-1.3-0.2c-1.4,0-2.3,1-2.6,3.1c-0.1,0.4-0.1,0.8-0.1,1.2C215.1,127.9,215.6,128.3,216.4,128.3L216.4,128.3z
			 M226.6,121c1.6,0,2.5,0.8,2.5,1.8c0,1.7-1.4,2.8-5,3.2c0,0.1,0,0.3,0,0.4c0,1.4,0.6,1.8,1.7,1.8c0.8,0,1.6-0.3,2.1-0.7l0.5,1.1
			c-0.7,0.6-1.8,1.1-3.1,1.1c-1.8,0-3-0.9-3-3.2c0-0.4,0-0.8,0.1-1.2C222.8,122.4,224.2,121,226.6,121z M226.4,122.3
			c-1.2,0-1.9,0.8-2.2,2.6c2.5-0.3,3.3-1,3.3-1.8C227.5,122.6,227.1,122.3,226.4,122.3z M233.8,121c-2.2,0-3.4,1.1-3.4,2.7
			c0,2.2,3.4,1.9,3.4,3.3c0,0.7-0.5,1.3-1.6,1.3c-0.7,0-1.6-0.2-2.1-0.7l-0.6,1.2c0.6,0.5,1.6,0.8,2.6,0.8c2.1,0,3.1-1.1,3.3-2.6
			c0-0.1,0-0.2,0-0.3c0-2.3-3.4-1.9-3.4-3.2c0-0.6,0.6-1.1,1.5-1.1c0.6,0,1.3,0.1,1.8,0.4l0.7-1.2C235.5,121.1,234.6,121,233.8,121z
			 M250.3,129.5l-2.8-5.5l4.1-5h-2.2l-3.5,4.3h-1.3l0.6-4.3h-1.9l-1.5,10.5h1.9l0.7-4.7h1.3l2.4,4.7H250.3z M259.4,121.1h-1.8
			l-0.8,5.5c-0.2,1-0.8,1.6-1.8,1.6c-1,0-1.4-0.4-1.4-1.2c0-0.1,0-0.2,0-0.3l0.8-5.6l-1.8,0.1l-0.8,5.5c0,0.2,0,0.4,0,0.6
			c0,1.5,1,2.4,3,2.4c2.3,0,3.5-1.1,3.8-3L259.4,121.1z M262.2,129.5l1.6-11.1l-1.8,0.1l-1.5,11H262.2z M264.8,122.5h1.1l-0.6,4.3
			c0,0.3-0.1,0.5-0.1,0.8c0,1.4,0.7,2.1,2,2.1c0.7,0,1.3-0.2,1.8-0.5v-1.2c-0.3,0.2-0.7,0.3-1.1,0.3c-0.6,0-0.9-0.3-0.9-1
			c0-0.2,0-0.3,0-0.5l0.6-4.2h2.1l0.3-1.3h-2.2l0.3-2.3l-1.4,0.2l-0.6,2.1h-1.2L264.8,122.5z M278.6,121.1h-1.8l-0.8,5.5
			c-0.2,1-0.8,1.6-1.8,1.6c-1,0-1.4-0.4-1.4-1.2c0-0.1,0-0.2,0-0.3l0.8-5.6l-1.8,0.1l-0.8,5.5c0,0.2,0,0.4,0,0.6c0,1.5,1,2.4,3,2.4
			c2.3,0,3.5-1.1,3.8-3L278.6,121.1z M284.7,121c-1,0-1.9,0.5-2.6,1.6l0,0c0-0.2,0-0.4,0-0.6l0-0.9l-1.4,0.1l-1.2,8.3h1.8l0.5-3.8
			c0.3-2,1.3-3,2.6-3c0.4,0,0.6,0,0.9,0.2l0.5-1.6C285.5,121.1,285.1,121,284.7,121z M291.5,121c1.6,0,2.4,0.8,2.4,2.9
			c0,4-1.7,5.8-4.3,5.8c-1.3,0-2.4-0.4-3.2-1l1.4-10.2l1.8-0.1l-0.4,2.9c0,0.2-0.1,0.4-0.1,0.6l0,0C289.7,121.3,290.6,121,291.5,121
			L291.5,121z M290.8,122.4c-1.1,0-2,0.9-2.2,2.3l-0.4,3.2c0.4,0.3,0.9,0.4,1.5,0.4c1.3,0,2-0.7,2.3-3c0.1-0.5,0.1-0.9,0.1-1.3
			C292.1,122.7,291.6,122.4,290.8,122.4z M299.5,121c1.6,0,2.5,0.8,2.5,1.8c0,1.7-1.4,2.8-5,3.2c0,0.1,0,0.3,0,0.4
			c0,1.4,0.6,1.8,1.7,1.8c0.8,0,1.6-0.3,2.1-0.7l0.5,1.1c-0.7,0.6-1.8,1.1-3.1,1.1c-1.8,0-3-0.9-3-3.2c0-0.4,0-0.8,0.1-1.2
			C295.7,122.4,297.2,121,299.5,121z M299.3,122.3c-1.2,0-1.9,0.8-2.2,2.6c2.5-0.3,3.3-1,3.3-1.8
			C300.4,122.6,300.1,122.3,299.3,122.3z M308,121c-1,0-1.9,0.5-2.6,1.6l0,0c0-0.2,0-0.4,0-0.6l0-0.9l-1.4,0.1l-1.2,8.3h1.8l0.5-3.8
			c0.3-2,1.3-3,2.6-3c0.4,0,0.6,0,0.9,0.2l0.5-1.6C308.8,121.1,308.4,121,308,121z M313.6,121c1.6,0,2.5,0.8,2.5,1.8
			c0,1.7-1.4,2.8-5,3.2c0,0.1,0,0.3,0,0.4c0,1.4,0.6,1.8,1.7,1.8c0.8,0,1.6-0.3,2.1-0.7l0.5,1.1c-0.7,0.6-1.8,1.1-3.1,1.1
			c-1.8,0-3-0.9-3-3.2c0-0.4,0-0.8,0.1-1.2C309.9,122.4,311.3,121,313.6,121z M313.5,122.3c-1.2,0-1.9,0.8-2.2,2.6
			c2.5-0.3,3.3-1,3.3-1.8C314.5,122.6,314.2,122.3,313.5,122.3z M318.9,129.5l1.2-8.4l-1.8,0.1l-1.2,8.3H318.9z M319.5,118.3
			c-0.8,0-1.2,0.3-1.2,1c0,0.5,0.3,0.6,1,0.6c0.8,0,1.2-0.3,1.2-0.9C320.5,118.5,320.2,118.3,319.5,118.3z M325.7,121
			c-2.3,0-3.8,1.4-4.2,4.3c-0.1,0.4-0.1,0.9-0.1,1.2c0,2.2,1.1,3.2,2.8,3.2c1.2,0,2-0.3,2.8-1l-0.5-1c-0.5,0.4-1.1,0.7-1.8,0.7
			c-1,0-1.6-0.4-1.6-1.9c0-0.3,0-0.7,0.1-1.1c0.3-2.1,1.1-2.9,2.5-2.9c0.6,0,1,0.1,1.4,0.3l0.6-1.2C327.2,121.1,326.6,121,325.7,121
			L325.7,121z M335.4,129.5l0.7-5.3c0-0.3,0.1-0.6,0.1-0.9c0-1.6-0.8-2.4-2.3-2.4c-1,0-1.8,0.3-2.5,0.9l0,0c0-0.2,0.1-0.4,0.1-0.6
			l0.4-2.9l-1.8,0.1l-1.5,11h1.8l0.7-4.8c0.2-1.4,1-2.3,2.2-2.3c0.8,0,1.2,0.3,1.2,1.2c0,0.2,0,0.4-0.1,0.6l-0.7,5.2H335.4z
			 M341.5,121c-2.2,0-3.4,1.1-3.4,2.7c0,2.2,3.4,1.9,3.4,3.3c0,0.7-0.5,1.3-1.6,1.3c-0.7,0-1.6-0.2-2.1-0.7l-0.6,1.2
			c0.6,0.5,1.6,0.8,2.6,0.8c2.1,0,3.1-1.1,3.3-2.6c0-0.1,0-0.2,0-0.3c0-2.3-3.4-1.9-3.4-3.2c0-0.6,0.6-1.1,1.5-1.1
			c0.6,0,1.3,0.1,1.8,0.4l0.7-1.2C343.1,121.1,342.3,121,341.5,121z"/>
	</g>
</g>
</svg>
