<?xml version="1.0" encoding="utf-8"?>
<!-- Generator: Adobe Illustrator 23.0.3, SVG Export Plug-In . SVG Version: 6.00 Build 0)  -->
<svg version="1.1" id="Ebene_1" xmlns="http://www.w3.org/2000/svg" xmlns:xlink="http://www.w3.org/1999/xlink" x="0px" y="0px"
	 viewBox="0 0 624 295" style="enable-background:new 0 0 624 295;" xml:space="preserve">
<style type="text/css">
	.st0{fill:#5CCDF1;}
	.st1{fill:#3192CF;}
	.st2{fill:#16378E;}
	.st3{fill:#1E3791;}
	.st4{fill:#E60005;}
	.st5{fill:#FFFFFF;}
</style>
<g>
	<polygon class="st0" points="3.8,0 45.4,133.2 352.8,191 502,0 	"/>
	<polygon class="st1" points="540.1,0 352.8,191 478,0 	"/>
	<polygon class="st2" points="623.8,41 352.8,191 536,0 624,0 	"/>
	<g>
		<path class="st3" d="M81.8,27.5l-7.2,0.3V64h7.2V51.9h3.7l6,12.1h8.1l-8-15.4l7.7-12.8h-8L85.5,46h-3.7V27.5z M126.5,35.8h-7.2
			v18.1c0,2.9-1.5,4.2-4.7,4.2s-4.6-1.4-4.6-4.2V35.8h-7.2V54c0,6.7,3.9,10.5,11.9,10.5s11.8-3.6,11.8-10.5V35.8z M139.9,64V27.5
			l-7.3,0.3V64H139.9z M161,41.2v-5.4h-6.3v-6.9l-5.7,0.5l-1.2,6.4h-3.5v5.4h3.2v14.6c0,5.3,2.7,8.6,8.4,8.6c2,0,3.9-0.4,4.8-0.8
			l-0.4-5.3c-0.5,0.2-1.5,0.3-2.2,0.3c-2.2,0-3.3-0.9-3.3-3.1V41.2H161z M188.4,35.8h-7.2v18.1c0,2.9-1.5,4.2-4.7,4.2
			s-4.7-1.4-4.7-4.2V35.8h-7.2V54c0,6.7,3.9,10.5,11.9,10.5s11.9-3.6,11.9-10.5V35.8z M201.1,64V49.9c0-4.7,2.8-7.4,6.6-7.4
			c1.1,0,2.2,0.2,3.1,0.5l0.5-7.1c-0.7-0.2-1.8-0.4-3.1-0.4c-3.2,0-6,1.7-7.7,5.1h-0.1l-0.7-4.7l-5.8,0.3v28h7.2V64z M87.2,82.4
			c2.1,0,4,0.3,5.7,0.7l1.3-9.4l4.6-0.3l-5.2,37.1h-3.4l-0.1-1.8c0-0.6,0-1.3,0-1.9H90c-2.4,2.8-5.6,4.2-9.2,4.2
			c-5,0-7.8-2.6-7.8-9.3C72.9,88.6,78.7,82.4,87.2,82.4z M82.3,107.4c4.3,0,7.6-3.3,8.4-8.8l1.7-11.8c-1.3-0.5-3-0.7-5-0.7
			c-5.3,0-8.4,3.5-9.5,11.1c-0.2,1.6-0.3,2.9-0.3,4.1C77.5,105.9,79.3,107.4,82.3,107.4z M105.8,110.5l3.9-27.8l-4.6,0.3l-3.9,27.5
			H105.8z M108.6,73.3c-2.1,0-3.3,1-3.3,2.8c0,1.3,0.9,1.8,2.6,1.8c2.1,0,3.3-0.8,3.3-2.7C111.2,74,110.4,73.3,108.6,73.3z
			 M137.9,82.8l-3.3,23.1c-1.2,8.6-6.2,11.8-13.3,11.8c-2.8,0-5.6-0.7-7.8-1.7l1-3.3c2.1,1,4.3,1.6,6.5,1.6c5,0,8.3-1.9,9.2-8.2
			l0.1-0.9h-0.1c-1.9,2.6-4.6,3.9-8,3.9c-4.8,0-8-2.2-8-8.8c0-10.8,5.9-17.7,15.6-17.7c2.7,0,4.8,0.4,7,0.4h1.1V82.8z M123.8,105.4
			c4,0,6.9-2.9,7.6-8.2l1.5-11.1c-1-0.1-2-0.2-3.4-0.2c-6.2,0-10.6,5.1-10.6,13.7C118.9,104,120.7,105.4,123.8,105.4z M146.2,110.5
			l3.9-27.8l-4.6,0.3l-3.9,27.5H146.2z M149,73.3c-2.1,0-3.3,1-3.3,2.8c0,1.3,0.9,1.8,2.6,1.8c2.1,0,3.3-0.8,3.3-2.7
			C151.6,74,150.8,73.3,149,73.3z M154.7,86.4h4l-2.1,15.3c-0.1,1-0.2,1.9-0.2,2.7c0,4.5,2,6.5,6,6.5c2.2,0,4.2-0.7,5.6-1.6
			l-0.1-3.2c-1.2,0.7-2.6,1.2-3.9,1.2c-2,0-3.1-1.1-3.1-3.8c0-0.6,0-1.2,0.1-1.9l2.1-15.2h7.4l0.7-3.4h-7.6l1.1-7.8l-3.6,0.6
			l-1.7,7.2h-4L154.7,86.4z M189.8,82.4c3.1,0,4.7,0.4,7.2,0.4h0.6l-3.9,27.7h-3.5v-3.9h-0.1c-2.3,3-5.6,4.4-9.2,4.4
			c-5.2,0-8-2.7-8-9.1C173,90,179.6,82.4,189.8,82.4z M182.4,107.4c4.3,0,7.6-3.3,8.4-8.8l1.8-12.4c-1-0.1-2-0.2-3.3-0.2
			c-6.3,0-10.3,4.1-11.4,12c-0.2,1.3-0.3,2.5-0.3,3.5C177.6,105.8,179.2,107.4,182.4,107.4z M205.5,110.5l5.2-37.1l-4.6,0.3
			l-5.2,36.7L205.5,110.5L205.5,110.5z"/>
		<path class="st4" d="M242.4,53.9c0,6.3-3.7,10.1-12.5,10.1h-14.4V29.1h14.2c7.6,0,11.4,3.4,11.4,8.9c0,3.9-1.9,6.3-4.6,7.5v0.1
			C240.3,46.7,242.4,49.4,242.4,53.9z M234.5,53.3c0-2.9-1.3-4.1-4.7-4.1h-6.7v8.5h6.9C233.1,57.6,234.5,56.6,234.5,53.3z
			 M233.6,39.4c0-2.7-1.3-3.7-4.2-3.7h-6.3v7.6h6.5C232.4,43.3,233.6,42.2,233.6,39.4L233.6,39.4z"/>
		<path class="st5" d="M223.4,100h3.8c2.8,0,4,1.1,4,3.7c0,0.5,0,1-0.1,1.5c-0.5,3.8-2.3,5.3-5.3,5.3H222L223.4,100z M225.1,101.6
			l-1,7.4h1.9c1.8,0,2.7-0.7,3.2-3.8c0.1-0.5,0.1-1,0.1-1.4c0-1.7-0.7-2.2-2.3-2.2H225.1z M234.3,110.5l1.2-8.4l-1.8,0.1l-1.2,8.3
			H234.3z M235,99.3c-0.8,0-1.2,0.3-1.2,1c0,0.5,0.3,0.6,1,0.6c0.8,0,1.2-0.3,1.2-0.9C235.9,99.5,235.6,99.3,235,99.3z M244.5,102.1
			l-1,7.1c-0.4,2.6-2,3.5-4.2,3.5c-0.9,0-1.7-0.2-2.4-0.5l0.4-1.3c0.6,0.3,1.3,0.4,1.9,0.4c1.4,0,2.3-0.5,2.6-2.2V109l0,0
			c-0.5,0.7-1.3,1-2.2,1c-1.5,0-2.4-0.7-2.4-2.7c0-3.2,1.7-5.3,4.7-5.3c0.8,0,1.4,0.1,2.1,0.1H244.5z M240.1,108.6
			c1.1,0,1.8-0.8,2-2.3l0.4-3c-0.3,0-0.5,0-0.9,0c-1.7,0-2.8,1.4-2.8,3.8C238.8,108.3,239.3,108.6,240.1,108.6L240.1,108.6z
			 M247.5,110.5l1.2-8.4l-1.8,0.1l-1.2,8.3H247.5z M248.1,99.3c-0.8,0-1.2,0.3-1.2,1c0,0.5,0.3,0.6,1,0.6c0.8,0,1.2-0.3,1.2-0.9
			C249.1,99.5,248.8,99.3,248.1,99.3z M250.2,103.5h1.1l-0.6,4.3c0,0.3-0.1,0.5-0.1,0.8c0,1.4,0.7,2.1,2,2.1c0.7,0,1.3-0.2,1.8-0.5
			V109c-0.3,0.2-0.7,0.3-1.1,0.3c-0.6,0-0.9-0.3-0.9-1c0-0.2,0-0.3,0-0.5l0.6-4.2h2.1l0.3-1.3h-2.2l0.3-2.3l-1.4,0.2l-0.6,2.1h-1.2
			L250.2,103.5z M261.3,102c0.9,0,1.4,0.1,2.1,0.1h0.4l-1.2,8.4h-1.4v-0.4c0-0.2,0-0.4,0-0.6l0,0c-0.7,0.8-1.7,1.2-2.6,1.2
			c-1.6,0-2.5-0.9-2.5-2.8C256.1,104.3,258.2,102,261.3,102z M259.2,109.3c1.1,0,2-0.9,2.2-2.3l0.5-3.6c-0.3,0-0.5-0.1-0.8-0.1
			c-1.7,0-2.7,1.1-3.1,3.3c-0.1,0.4-0.1,0.7-0.1,1C257.9,108.9,258.4,109.3,259.2,109.3z M266.8,110.5l1.6-11.1l-1.8,0.1l-1.5,11
			H266.8z M273.5,102c1.6,0,2.5,0.8,2.5,1.8c0,1.7-1.4,2.8-5,3.2c0,0.1,0,0.3,0,0.4c0,1.4,0.6,1.8,1.7,1.8c0.8,0,1.6-0.3,2.1-0.7
			l0.5,1.1c-0.7,0.6-1.8,1.1-3.1,1.1c-1.8,0-3-0.9-3-3.2c0-0.4,0-0.8,0.1-1.2C269.7,103.4,271.2,102,273.5,102z M273.4,103.3
			c-1.2,0-1.9,0.8-2.2,2.6c2.5-0.3,3.3-1,3.3-1.8C274.4,103.6,274.1,103.3,273.4,103.3z M283.7,109l0.4-3.2h4.1l0.2-1.4h-4.1
			l0.4-2.8h4.8l0.2-1.5H283l-1.5,10.5h6.9l0.3-1.5L283.7,109z M295.5,110.5h1.8l0.7-5.2c0-0.3,0.1-0.6,0.1-0.9
			c0-1.6-0.8-2.4-2.3-2.4c-1.1,0-2,0.4-2.7,1.2l0,0c0-0.2,0-0.4,0-0.6v-0.5l-1.4,0.1l-1.2,8.3h1.8l0.7-4.7c0.2-1.5,1-2.4,2.2-2.4
			c0.8,0,1.2,0.3,1.2,1.2c0,0.2,0,0.4-0.1,0.6L295.5,110.5z M299.7,103.5h1.1l-0.6,4.3c0,0.3-0.1,0.5-0.1,0.8c0,1.4,0.7,2.1,2,2.1
			c0.7,0,1.3-0.2,1.8-0.5V109c-0.3,0.2-0.7,0.3-1.1,0.3c-0.6,0-0.9-0.3-0.9-1c0-0.2,0-0.3,0-0.5l0.6-4.2h2.1l0.3-1.3h-2.2l0.3-2.3
			l-1.4,0.2l-0.6,2.1h-1.2L299.7,103.5z M317.3,101.9l-1.7,0.4c0.1,0.4,0.1,0.9,0.1,1.4c0,3.6-2,5.3-2.4,5.3s-0.9-0.6-0.9-2.2
			c0-0.4,0-0.9,0.1-1.5l0.4-3.1h-1.8l-0.4,2.8c-0.4,2.7-1.8,4-2.2,4c-0.3,0-0.8-0.6-0.8-2.2c0-0.4,0-1,0.1-1.5l0.4-3.2l-1.8,0.1
			l-0.4,3.1c-0.1,0.5-0.1,1-0.1,1.4c0,2.8,1.4,3.9,2.1,3.9c0.5,0,1.9-0.8,2.9-2.5l0,0c0.4,1.8,1.3,2.5,1.9,2.5
			c1.1,0,4.5-2.4,4.5-6.9C317.5,103,317.4,102.4,317.3,101.9L317.3,101.9z M320.5,110.5l1.2-8.4l-1.8,0.1l-1.2,8.3H320.5z
			 M321.1,99.3c-0.8,0-1.2,0.3-1.2,1c0,0.5,0.3,0.6,1,0.6c0.8,0,1.2-0.3,1.2-0.9C322.1,99.5,321.8,99.3,321.1,99.3z M327.3,102
			c-2.3,0-3.8,1.4-4.2,4.3c-0.1,0.4-0.1,0.9-0.1,1.2c0,2.2,1.1,3.2,2.8,3.2c1.2,0,2-0.3,2.8-1l-0.5-1c-0.5,0.4-1.1,0.7-1.8,0.7
			c-1,0-1.6-0.4-1.6-1.9c0-0.3,0-0.7,0.1-1.1c0.3-2.1,1.1-2.9,2.5-2.9c0.6,0,1,0.1,1.4,0.3l0.6-1.2C328.9,102.1,328.2,102,327.3,102
			L327.3,102z M332,110.5l0.4-3.1c0.4-2.6,1.8-4,3-4c0.5,0,0.7,0.3,0.7,0.7c0,0.9-0.9,1.9-2.6,2.5c0.4,2.5,2,4,4,4.1l0.4-1.3
			c-1.1-0.2-2-1-2.5-2.2c1.6-0.8,2.5-2.2,2.5-3.5c0-1-0.6-1.7-1.8-1.7c-1.1,0-2.2,0.5-3.1,1.5l0,0c0-0.2,0.1-0.4,0.1-0.6l0.5-3.5
			l-1.8,0.1l-1.5,11H332z M341,110.5l1.6-11.1l-1.8,0.1l-1.5,11H341z M351.1,102.1h-1.8l-0.8,5.5c-0.2,1-0.8,1.6-1.8,1.6
			s-1.4-0.4-1.4-1.2c0-0.1,0-0.2,0-0.3l0.8-5.6l-1.8,0.1l-0.8,5.5c0,0.2,0,0.4,0,0.6c0,1.5,1,2.4,3,2.4c2.3,0,3.5-1.1,3.8-3
			L351.1,102.1z M357.1,110.5h1.8l0.7-5.2c0-0.3,0.1-0.6,0.1-0.9c0-1.6-0.8-2.4-2.3-2.4c-1.1,0-2,0.4-2.7,1.2l0,0c0-0.2,0-0.4,0-0.6
			v-0.5l-1.4,0.1l-1.2,8.3h1.8l0.7-4.7c0.2-1.5,1-2.4,2.2-2.4c0.8,0,1.2,0.3,1.2,1.2c0,0.2,0,0.4-0.1,0.6L357.1,110.5z M368.8,102.1
			l-1,7.1c-0.4,2.6-2,3.5-4.2,3.5c-0.9,0-1.7-0.2-2.4-0.5l0.4-1.3c0.6,0.3,1.3,0.4,1.9,0.4c1.4,0,2.3-0.5,2.6-2.2V109l0,0
			c-0.5,0.7-1.3,1-2.2,1c-1.5,0-2.4-0.7-2.4-2.7c0-3.2,1.7-5.3,4.7-5.3c0.8,0,1.4,0.1,2.1,0.1H368.8z M364.4,108.6
			c1.1,0,1.8-0.8,2-2.3l0.4-3c-0.3,0-0.5,0-0.9,0c-1.7,0-2.8,1.4-2.8,3.8C363.1,108.3,363.6,108.6,364.4,108.6z M226.2,121
			c0.6,0,1.1,0.1,1.6,0.2l0.4-2.7l1.8-0.1l-1.6,11.1h-1.3l-0.1-0.4c0-0.2,0-0.4,0-0.6l0,0c-0.7,0.8-1.7,1.1-2.6,1.1
			c-1.6,0-2.4-0.8-2.4-2.8C221.8,122.8,223.6,121,226.2,121L226.2,121z M224.9,128.3c1.1,0,2-0.9,2.2-2.4l0.5-3.3
			c-0.4-0.1-0.8-0.2-1.3-0.2c-1.4,0-2.3,1-2.6,3.1c-0.1,0.4-0.1,0.8-0.1,1.2C223.6,127.9,224.1,128.3,224.9,128.3L224.9,128.3z
			 M235.1,121c1.6,0,2.5,0.8,2.5,1.8c0,1.7-1.4,2.8-5,3.2c0,0.1,0,0.3,0,0.4c0,1.4,0.6,1.8,1.7,1.8c0.8,0,1.6-0.3,2.1-0.7l0.5,1.1
			c-0.7,0.6-1.8,1.1-3.1,1.1c-1.8,0-3-0.9-3-3.2c0-0.4,0-0.8,0.1-1.2C231.3,122.4,232.7,121,235.1,121z M234.9,122.3
			c-1.2,0-1.9,0.8-2.2,2.6c2.5-0.3,3.3-1,3.3-1.8C236,122.6,235.6,122.3,234.9,122.3z M242.3,121c-2.2,0-3.4,1.1-3.4,2.7
			c0,2.2,3.4,1.9,3.4,3.3c0,0.7-0.5,1.3-1.6,1.3c-0.7,0-1.6-0.2-2.1-0.7l-0.6,1.2c0.6,0.5,1.6,0.8,2.6,0.8c2.1,0,3.1-1.1,3.3-2.6
			c0-0.1,0-0.2,0-0.3c0-2.3-3.4-1.9-3.4-3.2c0-0.6,0.6-1.1,1.5-1.1c0.6,0,1.3,0.1,1.8,0.4l0.7-1.2C244,121.1,243.1,121,242.3,121z
			 M258.8,129.5L256,124l4.1-5h-2.2l-3.5,4.3h-1.3l0.6-4.3h-1.9l-1.5,10.5h1.9l0.7-4.7h1.3l2.4,4.7H258.8z M267.9,121.1h-1.8
			l-0.8,5.5c-0.2,1-0.8,1.6-1.8,1.6c-1,0-1.4-0.4-1.4-1.2c0-0.1,0-0.2,0-0.3l0.8-5.6l-1.8,0.1l-0.8,5.5c0,0.2,0,0.4,0,0.6
			c0,1.5,1,2.4,3,2.4c2.3,0,3.5-1.1,3.8-3L267.9,121.1z M270.7,129.5l1.6-11.1l-1.8,0.1l-1.5,11H270.7z M273.3,122.5h1.1l-0.6,4.3
			c0,0.3-0.1,0.5-0.1,0.8c0,1.4,0.7,2.1,2,2.1c0.7,0,1.3-0.2,1.8-0.5V128c-0.3,0.2-0.7,0.3-1.1,0.3c-0.6,0-0.9-0.3-0.9-1
			c0-0.2,0-0.3,0-0.5l0.6-4.2h2.1l0.3-1.3h-2.2l0.3-2.3l-1.4,0.2l-0.6,2.1h-1.2L273.3,122.5z M287.1,121.1h-1.8l-0.8,5.5
			c-0.2,1-0.8,1.6-1.8,1.6s-1.4-0.4-1.4-1.2c0-0.1,0-0.2,0-0.3l0.8-5.6l-1.8,0.1l-0.8,5.5c0,0.2,0,0.4,0,0.6c0,1.5,1,2.4,3,2.4
			c2.3,0,3.5-1.1,3.8-3L287.1,121.1z M293.2,121c-1,0-1.9,0.5-2.6,1.6l0,0c0-0.2,0-0.4,0-0.6v-0.9l-1.4,0.1l-1.2,8.3h1.8l0.5-3.8
			c0.3-2,1.3-3,2.6-3c0.4,0,0.6,0,0.9,0.2l0.5-1.6C294,121.1,293.6,121,293.2,121z M300,121c1.6,0,2.4,0.8,2.4,2.9
			c0,4-1.7,5.8-4.3,5.8c-1.3,0-2.4-0.4-3.2-1l1.4-10.2l1.8-0.1l-0.4,2.9c0,0.2-0.1,0.4-0.1,0.6l0,0C298.2,121.3,299.1,121,300,121
			L300,121z M299.3,122.4c-1.1,0-2,0.9-2.2,2.3l-0.4,3.2c0.4,0.3,0.9,0.4,1.5,0.4c1.3,0,2-0.7,2.3-3c0.1-0.5,0.1-0.9,0.1-1.3
			C300.6,122.7,300.1,122.4,299.3,122.4z M308,121c1.6,0,2.5,0.8,2.5,1.8c0,1.7-1.4,2.8-5,3.2c0,0.1,0,0.3,0,0.4
			c0,1.4,0.6,1.8,1.7,1.8c0.8,0,1.6-0.3,2.1-0.7l0.5,1.1c-0.7,0.6-1.8,1.1-3.1,1.1c-1.8,0-3-0.9-3-3.2c0-0.4,0-0.8,0.1-1.2
			C304.2,122.4,305.7,121,308,121z M307.8,122.3c-1.2,0-1.9,0.8-2.2,2.6c2.5-0.3,3.3-1,3.3-1.8C308.9,122.6,308.6,122.3,307.8,122.3
			z M316.5,121c-1,0-1.9,0.5-2.6,1.6l0,0c0-0.2,0-0.4,0-0.6v-0.9l-1.4,0.1l-1.2,8.3h1.8l0.5-3.8c0.3-2,1.3-3,2.6-3
			c0.4,0,0.6,0,0.9,0.2l0.5-1.6C317.3,121.1,316.9,121,316.5,121z M322.1,121c1.6,0,2.5,0.8,2.5,1.8c0,1.7-1.4,2.8-5,3.2
			c0,0.1,0,0.3,0,0.4c0,1.4,0.6,1.8,1.7,1.8c0.8,0,1.6-0.3,2.1-0.7l0.5,1.1c-0.7,0.6-1.8,1.1-3.1,1.1c-1.8,0-3-0.9-3-3.2
			c0-0.4,0-0.8,0.1-1.2C318.4,122.4,319.8,121,322.1,121z M322,122.3c-1.2,0-1.9,0.8-2.2,2.6c2.5-0.3,3.3-1,3.3-1.8
			C323,122.6,322.7,122.3,322,122.3z M327.4,129.5l1.2-8.4l-1.8,0.1l-1.2,8.3H327.4z M328,118.3c-0.8,0-1.2,0.3-1.2,1
			c0,0.5,0.3,0.6,1,0.6c0.8,0,1.2-0.3,1.2-0.9C329,118.5,328.7,118.3,328,118.3z M334.2,121c-2.3,0-3.8,1.4-4.2,4.3
			c-0.1,0.4-0.1,0.9-0.1,1.2c0,2.2,1.1,3.2,2.8,3.2c1.2,0,2-0.3,2.8-1l-0.5-1c-0.5,0.4-1.1,0.7-1.8,0.7c-1,0-1.6-0.4-1.6-1.9
			c0-0.3,0-0.7,0.1-1.1c0.3-2.1,1.1-2.9,2.5-2.9c0.6,0,1,0.1,1.4,0.3l0.6-1.2C335.7,121.1,335.1,121,334.2,121L334.2,121z
			 M343.9,129.5l0.7-5.3c0-0.3,0.1-0.6,0.1-0.9c0-1.6-0.8-2.4-2.3-2.4c-1,0-1.8,0.3-2.5,0.9l0,0c0-0.2,0.1-0.4,0.1-0.6l0.4-2.9
			l-1.8,0.1l-1.5,11h1.8l0.7-4.8c0.2-1.4,1-2.3,2.2-2.3c0.8,0,1.2,0.3,1.2,1.2c0,0.2,0,0.4-0.1,0.6l-0.7,5.2h1.7V129.5z M350,121
			c-2.2,0-3.4,1.1-3.4,2.7c0,2.2,3.4,1.9,3.4,3.3c0,0.7-0.5,1.3-1.6,1.3c-0.7,0-1.6-0.2-2.1-0.7l-0.6,1.2c0.6,0.5,1.6,0.8,2.6,0.8
			c2.1,0,3.1-1.1,3.3-2.6c0-0.1,0-0.2,0-0.3c0-2.3-3.4-1.9-3.4-3.2c0-0.6,0.6-1.1,1.5-1.1c0.6,0,1.3,0.1,1.8,0.4l0.7-1.2
			C351.6,121.1,350.8,121,350,121z"/>
	</g>
</g>
</svg>
