<svg enable-background="new 0 0 680 190" viewBox="0 0 680 190" xmlns="http://www.w3.org/2000/svg"><path d="m0 0h420.9l-229.3 190-191.6-54.1z" fill="#6ecdf5"/><path d="m191.6 190 488.4-190h-259.5z" fill="#1e3791"/><g enable-background="new" fill="#1e3791"><path d="m89.9 54.6h3.1l4.9-8.5h6.7l-6.4 10.7 6.7 12.9h-6.8l-5-10.2h-3.1v10.2h-6v-30.4l6-.3v15.6z"/><path d="m127.2 61.3c0 5.7-3.2 8.8-9.9 8.8s-9.9-3.2-9.9-8.8v-15.3h6v15.2c0 2.3 1.2 3.5 3.9 3.5s3.9-1.1 3.9-3.5v-15.2h6z"/><path d="m132.3 69.7v-30.4l6.1-.3v30.7z"/><path d="m150.9 50.6v12.1c0 1.8.9 2.6 2.8 2.6.6 0 1.4-.1 1.9-.3l.4 4.4c-.8.4-2.4.7-4.1.7-4.7 0-7-2.7-7-7.2v-12.3h-2.7v-4.6h2.9l1-5.3 4.8-.4v5.7h5.3v4.5h-5.3z"/><path d="m179.1 61.3c0 5.7-3.2 8.8-9.9 8.8s-9.9-3.2-9.9-8.8v-15.3h6v15.2c0 2.3 1.2 3.5 3.9 3.5s3.9-1.1 3.9-3.5v-15.2h6z"/><path d="m183.7 69.7v-23.5l4.8-.2.5 3.9h.1c1.5-2.8 3.8-4.3 6.5-4.3 1.1 0 2 .2 2.6.4l-.4 6c-.7-.2-1.6-.4-2.6-.4-3.2 0-5.5 2.3-5.5 6.2v11.9z"/></g><path d="m214.2 69.7h-12.1v-29.3h11.9c6.4 0 9.6 2.8 9.6 7.5 0 3.3-1.6 5.3-3.9 6.3v.1c3.2.9 5 3.2 5 6.9-.1 5.2-3.2 8.5-10.5 8.5zm-.1-12.5h-5.7v7.1h5.8c2.6 0 3.8-.9 3.8-3.6 0-2.5-1.1-3.5-3.9-3.5zm-.3-11.2h-5.3v6.4h5.5c2.3 0 3.4-.9 3.4-3.2s-1.2-3.2-3.6-3.2z" fill="#e60005"/><g enable-background="new" fill="#1e3791"><path d="m96.9 92.6 1.1-7.4 4.9-.3-4.3 30.9h-3.7l-.2-1.1c-.1-.5-.1-1.1-.1-1.6h-.1c-2 2.2-4.6 3.2-7.4 3.2-4.3 0-6.7-2.2-6.7-7.9 0-11.1 5-16.2 12.1-16.2 1.6-.1 3.1.1 4.4.4zm-1.8 13.2 1.3-9.3c-1-.3-2.1-.5-3.5-.5-4 0-6.4 2.7-7.2 8.6-.2 1.2-.3 2.3-.3 3.2 0 3.5 1.3 4.5 3.5 4.5 3.1.1 5.6-2.4 6.2-6.5z"/><path d="m104.3 115.9 3.2-23.2 4.9-.3-3.3 23.5zm9.4-29.5c0 1.8-1.1 2.6-3.3 2.6-1.8 0-2.7-.4-2.7-1.7 0-1.8 1.1-2.7 3.3-2.7 1.8 0 2.7.6 2.7 1.8z"/><path d="m133.7 112.1c-1 7.2-5.7 9.9-11.7 9.9-2.4 0-4.8-.5-6.7-1.4l1-3.5c1.8.7 3.6 1.2 5.3 1.2 3.9 0 6.5-1.4 7.2-6.1v-.4h-.1c-1.5 1.9-3.7 2.7-6.2 2.7-4.1 0-6.7-2-6.7-7.6 0-8.8 4.8-14.7 13.2-14.7 2.1 0 3.9.4 5.8.4h1.8zm-3.8-7.8 1.2-8.3c-.7-.1-1.4-.1-2.5-.1-4.6 0-7.8 3.9-7.8 10.5 0 3.2 1.2 4.3 3.5 4.3 3 0 5-2.3 5.6-6.4z"/><path d="m138.9 115.9 3.2-23.2 4.9-.3-3.3 23.5zm9.4-29.5c0 1.8-1.1 2.6-3.3 2.6-1.8 0-2.7-.4-2.7-1.7 0-1.8 1.1-2.7 3.3-2.7 1.8 0 2.7.6 2.7 1.8z"/><path d="m150.9 92.7h3.3l1.6-6 3.9-.5-.9 6.4h6.1l-.7 3.6h-5.9l-1.6 11.7c-.1.5-.1 1-.1 1.4 0 2 .9 2.8 2.4 2.8 1 0 2.1-.3 3-.9v3.5c-1.2.8-3 1.3-4.9 1.3-3.6 0-5.5-1.9-5.5-5.8 0-.7 0-1.4.2-2.1l1.7-11.9h-3.2z"/><path d="m186.1 92.5h1.2l-3.3 23.4h-3.8l-.1-1.2c0-.5 0-1.1 0-1.6h-.1c-1.9 2.3-4.6 3.3-7.4 3.3-4.5 0-6.9-2.4-6.9-7.7 0-9.9 5.7-16.5 14.4-16.5 2.6-.1 3.9.3 6 .3zm-5.6 13.6 1.4-10c-.7-.1-1.4-.2-2.3-.2-4.6 0-7.6 3-8.5 9.3-.2 1.1-.2 2.1-.2 2.9 0 3.1 1.2 4.3 3.5 4.3 3.1 0 5.6-2.4 6.1-6.3z"/><path d="m189.5 115.9 4.3-30.6 5-.3-4.3 30.9z"/></g></svg>