<svg height="80" viewBox="0 0 270 80" width="270" xmlns="http://www.w3.org/2000/svg"><g fill="none" fill-rule="evenodd"><path d="m0 0h225.399562l-55.964599 79.9537037-169.434963-22.3148148z" fill="#6ecdf5"/><path d="m169.372694 80 53.930719-80h46.377456z" fill="#1e3791"/><g transform="translate(19.926199 19.753086)"><path d="m4.31202952 1.12197531-3.70627306.16592592v18.46518517h3.70627306v-6.1866666h1.88900369l3.08457565 6.1866666h4.18450184l-4.08885609-7.8459259 3.94538749-6.51851852h-4.11276756l-3.01284133 5.19111112h-1.88900369zm22.97889298 4.26666667h-3.7062731v9.22074072c0 1.4696296-.765166 2.1570371-2.3911439 2.1570371-1.6259778 0-2.3911439-.7348149-2.3911439-2.1570371v-9.22074072h-3.706273v9.29185182c0 3.4133334 1.9846494 5.3333334 6.0974169 5.3333334 4.1127676 0 6.097417-1.8488889 6.097417-5.3333334zm6.862583 14.36444442v-18.63111109l-3.7540959.16592592v18.46518517zm10.8557934-11.6148148v-2.74962962h-3.2280443v-3.50814815l-2.9171956.26074074-.6216974 3.24740741h-1.7933579v2.74962962h1.6259778v7.4666667c0 2.7259259 1.410775 4.3851852 4.3040591 4.3851852 1.0281919 0 1.9846494-.1896297 2.4867897-.402963l-.215203-2.6785185c-.2630258.0948148-.765166.1659259-1.1477491.1659259-1.147749 0-1.7216236-.4740741-1.7216236-1.5881481v-7.3481482zm14.0838376-2.74962962h-3.706273v9.22074072c0 1.4696296-.7651661 2.1570371-2.3911439 2.1570371-1.6259779 0-2.391144-.7348149-2.391144-2.1570371v-9.22074072h-3.706273v9.29185182c0 3.4133334 1.9846494 5.3333334 6.097417 5.3333334 4.1127675 0 6.0974169-1.8488889 6.0974169-5.3333334zm6.5517343 14.36444442v-7.2059259c0-2.3940741 1.4346864-3.7925926 3.371513-3.7925926.5738745 0 1.1238376.09481482 1.5781549.23703704l.2391144-3.62666667c-.382583-.11851852-.9325461-.21333333-1.5781549-.21333333-1.6498893 0-3.0606643.85333333-3.9692989 2.5837037h-.0717344l-.3347601-2.39407407-2.9650185.14222222v14.26962961zm30.3436163-14.34074072c1.0999262 0 2.0802952.14222222 2.9171956.37925926l.6934317-4.78814815 2.3433206-.14222222-2.6780808 18.89185183h-1.7694465l-.0717343-.9244444c-.0239114-.3081482-.0239114-.6637037-.0239114-.9718519l-.0478229-.0237037c-1.2194834 1.4459259-2.8693727 2.1570371-4.7105535 2.1570371-2.558524 0-3.9932103-1.3037037-3.9932103-4.7407408 0-6.63703702 2.9650184-9.83703702 7.3408118-9.83703702zm-2.5346126 12.75259262c2.2237639 0 3.9214761-1.7066667 4.3279705-4.48l.8608118-6.02074077c-.6934317-.26074074-1.5303321-.37925926-2.5824354-.37925926-2.7259041 0-4.3279705 1.77777778-4.8779336 5.66518523-.1195572.8059259-.1673801 1.4933333-.1673801 2.0859259 0 2.3940741.9086347 3.1288889 2.4389668 3.1288889zm12.0752765 1.5881481 2.008561-14.1748148-2.343321.14222223-1.984649 14.03259257zm1.434687-18.93925924c-1.099927 0-1.673801.49777778-1.673801 1.42222222 0 .66370371.454317.90074074 1.33904.90074074 1.076015 0 1.673801-.40296296 1.673801-1.37481481 0-.6162963-.406494-.94814815-1.33904-.94814815zm15.112029 4.83555556-1.673801 11.75703708c-.621697 4.3851851-3.204132 5.997037-6.862583 5.997037-1.434686 0-2.893284-.3555556-3.99321-.877037l.50214-1.7066667c1.076015.4977778 2.199853.8059259 3.32369.8059259 2.558524 0 4.256236-.9481481 4.710554-4.1718518l.071734-.4503704-.047823-.0237037c-.956457 1.3274074-2.367232 1.9674074-4.112767 1.9674074-2.48679 0-4.088856-1.1377778-4.088856-4.48 0-5.49925927 3.012841-9.03111112 8.010332-9.03111112 1.410775 0 2.462878.21333334 3.610627.21333334zm-7.269077 11.51999998c2.080295 0 3.538893-1.4933333 3.921476-4.1955555l.789077-5.64148152c-.526051-.07111111-1.00428-.09481482-1.769446-.09481482-3.180222 0-5.47572 2.58370371-5.47572 6.99259264 0 2.2281481.932546 2.9392592 2.534613 2.9392592zm11.501402 2.5837037 2.008561-14.1748148-2.343321.14222223-1.98465 14.03259257zm1.434686-18.93925924c-1.099926 0-1.673801.49777778-1.673801 1.42222222 0 .66370371.454318.90074074 1.339041.90074074 1.076015 0 1.673801-.40296296 1.673801-1.37481481 0-.6162963-.406495-.94814815-1.339041-.94814815zm2.941107 6.63703704h2.032473l-1.099927 7.8222222c-.071734.4977778-.095645.9481482-.095645 1.3511111 0 2.2755556 1.052103 3.2948148 3.084575 3.2948148 1.123838 0 2.15203-.3555555 2.893284-.8296296l-.047822-1.6118518c-.621698.3792592-1.339041.6162963-1.98465.6162963-1.052103 0-1.602066-.5451852-1.602066-1.92 0-.2844445.023911-.6162963.071734-.9718519l1.099926-7.7511111h3.801919l.382583-1.73037037h-3.921476l.549963-3.95851852-1.865092.28444444-.884723 3.67407408h-2.056384zm18.077048-2.01481482c1.602067 0 2.415056.21333334 3.682362.21333334h.310849l-1.98465 14.10370368h-1.817269v-1.9911111l-.047823-.0237037c-1.195572 1.517037-2.869373 2.2518519-4.710554 2.2518519-2.678081 0-4.088856-1.3985186-4.088856-4.6222223 0-6.04444441 3.371513-9.93185182 8.655941-9.93185182zm-3.801919 12.72888892c2.223764 0 3.921476-1.7066667 4.327971-4.48l.908635-6.30518521c-.526052-.04740741-1.028192-.11851852-1.697713-.11851852-3.251955 0-5.308339 2.08592592-5.882214 6.13925923-.095645.6874074-.143468 1.28-.143468 1.8014815 0 2.157037.8369 2.962963 2.486789 2.962963zm11.860074 1.5881481 2.678081-18.89185183-2.343321.16592592-2.654169 18.72592591z" fill="#1e3791"/><path d="m86.8782288 14.585679c0 3.2-1.8890037 5.1674074-6.4082657 5.1674074h-7.3886347v-17.77777776h7.2929889c3.8975646 0 5.8583026 1.73037037 5.8583026 4.55111111 0 1.99111111-.9564575 3.22370371-2.3911439 3.81629625v.0474075c1.9846495.5451851 3.0367528 1.9437037 3.0367528 4.1955555zm-4.0410332-.3081481c0-1.4933334-.6695203-2.1096297-2.4150554-2.1096297h-3.4671587v4.3140741h3.5628045c1.6020664 0 2.3194096-.5214815 2.3194096-2.2044444zm-.4543174-7.04000004c0-1.39851851-.6456088-1.89629629-2.1520295-1.89629629h-3.2519557v3.8637037h3.3476015c1.4346863 0 2.0563837-.56888889 2.0563837-1.96740741z" fill="#e60005"/></g></g></svg>