<?xml version="1.0" encoding="UTF-8"?>
<svg width="16px" height="13px" viewBox="0 0 16 13" version="1.1" xmlns="http://www.w3.org/2000/svg" xmlns:xlink="http://www.w3.org/1999/xlink">
    <g id="Page-2" stroke="none" stroke-width="1" fill="none" fill-rule="evenodd">
        <g id="Filter-Ansicht-Umkreis" transform="translate(-90.000000, -247.000000)" fill="#FFFFFF" fill-rule="nonzero">
            <g id="Group-21" transform="translate(82.000000, 168.000000)">
                <g id="Group-20" transform="translate(0.000000, 30.000000)">
                    <g id="Group-3" transform="translate(0.000000, 38.000000)">
                        <g id="theater" transform="translate(8.000000, 11.000000)">
                            <path d="M15.3668188,0.0338791946 L7.49879195,0.0338791946 C7.17873826,0.0338791946 6.91930201,0.293369128 6.91930201,0.613369128 L6.91930201,2.25084564 L8.04187919,2.25084564 C8.58512752,2.25084564 9.0270604,2.69277852 9.0270604,3.23602685 L9.0270604,4.21546309 C9.05030872,4.16934228 9.08037584,4.12665772 9.11720805,4.08987919 C9.20934228,3.99833557 9.33621477,3.94555705 9.46604027,3.94555705 C9.59586577,3.94555705 9.72273826,3.99828188 9.81374497,4.08987919 C9.90587919,4.18136913 9.95860403,4.30834899 9.95860403,4.4381745 C9.95860403,4.5673557 9.90587919,4.69487248 9.81374497,4.78641611 C9.72273826,4.87795973 9.59586577,4.93073826 9.46604027,4.93073826 C9.33621477,4.93073826 9.20934228,4.87801342 9.11720805,4.78641611 C9.08037584,4.74958389 9.05030872,4.70689933 9.0270604,4.66077852 L9.0270604,8.15355705 C9.0270604,8.53508725 8.98195973,8.90604027 8.89938255,9.26281879 C9.62222819,9.75527517 10.4941208,10.0444027 11.4328591,10.0444027 C13.9216107,10.0444027 15.9463624,8.01965101 15.9463624,5.53089933 L15.9463624,0.613369128 C15.9463087,0.293369128 15.6868188,0.0338791946 15.3668188,0.0338791946 Z M13.4851007,7.89621477 C13.2725906,8.00832215 13.0098255,7.92681879 12.8978792,7.71457718 C12.6100403,7.16880537 12.0486443,6.82979866 11.4327517,6.82979866 C10.8168591,6.82979866 10.2554631,7.16885906 9.96757047,7.71457718 C9.88971812,7.86222819 9.73884564,7.94652349 9.5827651,7.94652349 C9.51441611,7.94652349 9.44510067,7.93036242 9.38040268,7.89621477 C9.16805369,7.78421477 9.0867651,7.52128859 9.1987651,7.30899329 C9.6375302,6.47720805 10.4935302,5.96053691 11.4328054,5.96053691 C12.3720805,5.96053691 13.2280805,6.47720805 13.6667919,7.30899329 C13.7787919,7.52134228 13.697396,7.78421477 13.4851007,7.89621477 Z M13.7479195,4.78636242 C13.6564295,4.87790604 13.5294497,4.93068456 13.3996779,4.93068456 C13.2704966,4.93068456 13.1429799,4.87795973 13.0514362,4.78636242 C12.9598389,4.69481879 12.9071141,4.56789262 12.9071141,4.43812081 C12.9071141,4.30888591 12.9598389,4.18136913 13.0514362,4.0898255 C13.1429799,3.99828188 13.2704966,3.94550336 13.3996779,3.94550336 C13.5295034,3.94550336 13.6564295,3.99822819 13.7479195,4.0898255 C13.8394631,4.18131544 13.8922416,4.30883221 13.8922416,4.43812081 C13.8922416,4.56794631 13.8395168,4.69481879 13.7479195,4.78636242 Z" id="Shape"></path>
                            <path d="M8.04187919,3.0621745 L0.173852349,3.0621745 C0.0779597315,3.0621745 0,3.14018792 0,3.23602685 L0,8.15355705 C0,10.4186846 1.84273826,12.2614228 4.10786577,12.2614228 C6.37299329,12.2614228 8.21573154,10.4186846 8.21573154,8.15355705 L8.21573154,3.23602685 C8.21573154,3.14018792 8.13771812,3.0621745 8.04187919,3.0621745 Z M1.64848322,7.0609396 C1.64848322,6.93111409 1.70120805,6.80424161 1.79280537,6.71269799 C1.88434899,6.62056376 2.01132886,6.56837584 2.14104698,6.56837584 C2.27028188,6.56837584 2.39726174,6.62056376 2.48939597,6.71269799 C2.5809396,6.80424161 2.63366443,6.93116779 2.63366443,7.0609396 C2.63366443,7.1901745 2.58099329,7.31710067 2.48939597,7.4092349 C2.39726174,7.50077852 2.27033557,7.55355705 2.14104698,7.55355705 C2.01127517,7.55355705 1.88434899,7.50083221 1.79280537,7.4092349 C1.70120805,7.31763758 1.64848322,7.1907651 1.64848322,7.0609396 Z M6.34190604,9.22061745 C5.90314094,10.0524027 5.04708725,10.5691275 4.10786577,10.5691275 C3.1686443,10.5691275 2.3125906,10.0524027 1.8738255,9.22061745 C1.7618255,9.00832215 1.84316779,8.74539597 2.05551678,8.63339597 C2.26781208,8.52128859 2.53079195,8.60279195 2.64273826,8.81503356 C2.93063087,9.36080537 3.49208054,9.69986577 4.10791946,9.69986577 C4.72375839,9.69986577 5.28520805,9.36080537 5.57310067,8.81503356 C5.68510067,8.60268456 5.94797315,8.52144966 6.16032215,8.63339597 C6.37256376,8.74539597 6.45390604,9.00832215 6.34190604,9.22061745 Z M6.42303356,7.40918121 C6.33148993,7.50072483 6.20451007,7.55350336 6.07473826,7.55350336 C5.94491275,7.55350336 5.81798658,7.50077852 5.72638926,7.40918121 C5.63484564,7.31704698 5.58212081,7.1901745 5.58212081,7.06088591 C5.58212081,6.9310604 5.63479195,6.80418792 5.72638926,6.7126443 C5.81793289,6.62051007 5.94491275,6.56832215 6.07473826,6.56832215 C6.20451007,6.56832215 6.33143624,6.62051007 6.42303356,6.7126443 C6.51457718,6.80418792 6.5673557,6.93111409 6.5673557,7.06088591 C6.5673557,7.1901745 6.51457718,7.31704698 6.42303356,7.40918121 Z" id="Shape"></path>
                        </g>
                    </g>
                </g>
            </g>
        </g>
    </g>
</svg>